# xmcd
#
# Track frame offsets:
#	150
#	12517
#	29514
#	45646
#	57946
#	80477
#	93958
#	106382
#	118995
#	132749
#	138712
#	145485
#	156312
#	171341
#	182054
#	194881
#	216179
#	229488
#	244864
#
# Disc length: 3560 seconds
# Revision: 0
# Processed by: cddbd v1.5.2PL0 Copyright (c) Steve Scherf et al.
# Submitted via: dBpowerAMP V12.0
#
DISCID=300de613
DTITLE=Various Artist - Live From Nashville
DYEAR=2011
DGENRE=Country
TTITLE0=Daniel O'Donnell - I'm Going To Be A Country Boy Again
TTITLE1=Daniel O'Donnell - Jambalaya (On The Bayou)
TTITLE2=Daniel O'Donnell - Please Release Me
TTITLE3=Daniel O'Donnell - Ring Of Fire
TTITLE4=Daniel O'Donnell - Erin Tennessee
TTITLE5=Daniel O'Donnell with Mary Duff - Love Me Tonight
TTITLE6=Daniel O'Donnell - Somebody Touched Me
TTITLE7=Daniel O'Donnell - Green Grass To Bluegrass Medley: Isle Of Hope
TTITLE8=Daniel O'Donnell - Danny Boy
TTITLE9=Daniel O'Donnell - Teetotaller's Reel
TTITLE10=Daniel O'Donnell - Temperance Reel
TTITLE11=Daniel O'Donnell - Isle Of Hope (Reprise)
TTITLE12=Daniel O'Donnell - Tipperary Girl
TTITLE13=Majella O'Donnell - I Love You Honey
TTITLE14=Daniel O'Donnell with Charley Pride - Crystal Chandeliers
TTITLE15=Daniel O'Donnell - Heaven With You
TTITLE16=Daniel O'Donnell - Here At The Grand Ole Opry
TTITLE17=Daniel O'Donnell - Stand Beside Me
TTITLE18=Daniel O'Donnell - Thank God I'm A Country Boy
EXTD=
EXTT0=
EXTT1=
EXTT2=
EXTT3=
EXTT4=
EXTT5=
EXTT6=
EXTT7=
EXTT8=
EXTT9=
EXTT10=
EXTT11=
EXTT12=
EXTT13=
EXTT14=
EXTT15=
EXTT16=
EXTT17=
EXTT18=
PLAYORDER=
